<svg width="0" height="0" class="hidden">
  <symbol fill="transparent" xmlns="http://www.w3.org/2000/svg" viewBox="0 0 16 16" id="arrow-circle">
    <g clip-path="url(#clip0_64_1784)">
      <path d="M2.22528 4.66683C3.37798 2.67416 5.53246 1.3335 8.00007 1.3335C11.682 1.3335 14.6667 4.31826 14.6667 8.00016C14.6667 11.6821 11.682 14.6668 8.00007 14.6668C5.53246 14.6668 3.37798 13.3262 2.22528 11.3335" stroke-width="1.3" stroke-linecap="round" stroke-linejoin="round"></path>
      <path d="M8 10.6668L10.6667 8.00016L8 5.3335" fill="transparent" stroke-width="1.3" stroke-linecap="round" stroke-linejoin="round"></path>
      <path d="M1.33331 8L10.6666 8" stroke-width="1.3" stroke-linecap="round" stroke-linejoin="round"></path>
    </g>
    <defs>
      <clipPath id="clip0_64_1784">
        <rect fill="transparent" width="16" height="16"></rect>
      </clipPath>
    </defs>
  </symbol>
    <symbol fill="none" xmlns="http://www.w3.org/2000/svg" viewBox="0 0 48 48" id="ph_user">
    <path d="M43.2975 39.75C40.4419 34.8131 36.0413 31.2731 30.9056 29.595C33.446 28.0827 35.4196 25.7784 36.5235 23.0358C37.6275 20.2933 37.8006 17.2642 37.0164 14.4138C36.2322 11.5633 34.5339 9.04909 32.1825 7.25721C29.831 5.46533 26.9564 4.49487 24 4.49487C21.0436 4.49487 18.169 5.46533 15.8176 7.25721C13.4661 9.04909 11.7679 11.5633 10.9837 14.4138C10.1994 17.2642 10.3726 20.2933 11.4765 23.0358C12.5804 25.7784 14.5541 28.0827 17.0944 29.595C11.9588 31.2712 7.55814 34.8112 4.70252 39.75C4.5978 39.9207 4.52834 40.1107 4.49824 40.3088C4.46813 40.5068 4.478 40.7088 4.52725 40.903C4.5765 41.0972 4.66415 41.2795 4.785 41.4392C4.90586 41.599 5.05749 41.7329 5.23094 41.8331C5.40439 41.9333 5.59615 41.9977 5.79491 42.0226C5.99367 42.0474 6.19539 42.0323 6.38818 41.9779C6.58098 41.9236 6.76093 41.8311 6.91743 41.7061C7.07393 41.5811 7.20381 41.426 7.29939 41.25C10.8319 35.145 17.0756 31.5 24 31.5C30.9244 31.5 37.1681 35.145 40.7006 41.25C40.7962 41.426 40.9261 41.5811 41.0826 41.7061C41.2391 41.8311 41.4191 41.9236 41.6119 41.9779C41.8046 42.0323 42.0064 42.0474 42.2051 42.0226C42.4039 41.9977 42.5956 41.9333 42.7691 41.8331C42.9425 41.7329 43.0942 41.599 43.215 41.4392C43.3359 41.2795 43.4235 41.0972 43.4728 40.903C43.522 40.7088 43.5319 40.5068 43.5018 40.3088C43.4717 40.1107 43.4022 39.9207 43.2975 39.75ZM13.5 18C13.5 15.9233 14.1158 13.8932 15.2696 12.1665C16.4233 10.4398 18.0632 9.09396 19.9818 8.29924C21.9005 7.50452 24.0117 7.29658 26.0485 7.70173C28.0853 8.10687 29.9562 9.1069 31.4246 10.5754C32.8931 12.0438 33.8931 13.9147 34.2983 15.9515C34.7034 17.9883 34.4955 20.0995 33.7008 22.0182C32.906 23.9368 31.5602 25.5766 29.8335 26.7304C28.1068 27.8842 26.0767 28.5 24 28.5C21.2162 28.497 18.5472 27.3898 16.5787 25.4213C14.6102 23.4528 13.503 20.7838 13.5 18Z" fill="#3E85F3" fill-opacity="0.18"></path>
  </symbol>
  <symbol fill="none" xmlns="http://www.w3.org/2000/svg" viewBox="0 0 24 24" id="calendar">
    <path d="M21 10H3M21 12.5V8.8C21 7.11984 21 6.27976 20.673 5.63803C20.3854 5.07354 19.9265 4.6146 19.362 4.32698C18.7202 4 17.8802 4 16.2 4H7.8C6.11984 4 5.27976 4 4.63803 4.32698C4.07354 4.6146 3.6146 5.07354 3.32698 5.63803C3 6.27976 3 7.11984 3 8.8V17.2C3 18.8802 3 19.7202 3.32698 20.362C3.6146 20.9265 4.07354 21.3854 4.63803 21.673C5.27976 22 6.11984 22 7.8 22H12M16 2V6M8 2V6M14.5 19L16.5 21L21 16.5" stroke-width="2" stroke-linecap="round" stroke-linejoin="round"></path>
  </symbol>
  <symbol fill="none" xmlns="http://www.w3.org/2000/svg" viewBox="0 0 18 18" id="chevron-left">
    <path d="M11.25 13.5L6.75 9L11.25 4.5" stroke-width="1.5" stroke-linecap="round" stroke-linejoin="round"></path>
  </symbol>
  <symbol fill="none" xmlns="http://www.w3.org/2000/svg" viewBox="0 0 18 18" id="chevron-right">
    <path d="M6.75 13.5L11.25 9L6.75 4.5" stroke-width="1.5" stroke-linecap="round" stroke-linejoin="round"></path>
  </symbol>
  <symbol fill="none" xmlns="http://www.w3.org/2000/svg" viewBox="0 0 18 18" id="loginIcon">
    <path d="M11.5 1.5H12.5C13.9001 1.5 14.6002 1.5 15.135 1.77248C15.6054 2.01217 15.9878 2.39462 16.2275 2.86502C16.5 3.3998 16.5 4.09987 16.5 5.5V12.5C16.5 13.9001 16.5 14.6002 16.2275 15.135C15.9878 15.6054 15.6054 15.9878 15.135 16.2275C14.6002 16.5 13.9001 16.5 12.5 16.5H11.5M7.33333 4.83333L11.5 9M11.5 9L7.33333 13.1667M11.5 9L1.5 9" stroke-width="2" stroke-linecap="round" stroke-linejoin="round"></path>
  </symbol>
  <symbol fill="none" xmlns="http://www.w3.org/2000/svg" viewBox="0 0 20 20" id="logout">
    <path d="M13.3333 14.1667L17.5 10M17.5 10L13.3333 5.83333M17.5 10H7.5M7.5 2.5H6.5C5.09987 2.5 4.3998 2.5 3.86502 2.77248C3.39462 3.01217 3.01217 3.39462 2.77248 3.86502C2.5 4.3998 2.5 5.09987 2.5 6.5V13.5C2.5 14.9001 2.5 15.6002 2.77248 16.135C3.01217 16.6054 3.39462 16.9878 3.86502 17.2275C4.3998 17.5 5.09987 17.5 6.5 17.5H7.5" stroke-width="2" stroke-linecap="round" stroke-linejoin="round"></path>
  </symbol>
  <symbol fill="none" xmlns="http://www.w3.org/2000/svg" viewBox="0 0 32 32" id="moon">
    <path d="M27.656 17.3933C26.7525 17.6333 25.8216 17.7547 24.8867 17.7546C22.04 17.7546 19.3667 16.648 17.3587 14.64C16.0401 13.3138 15.0921 11.6651 14.6093 9.85837C14.1264 8.05161 14.1255 6.14985 14.6067 4.34264C14.6668 4.11669 14.6664 3.8789 14.6056 3.65314C14.5448 3.42738 14.4257 3.22157 14.2602 3.05638C14.0947 2.89119 13.8887 2.77241 13.6629 2.71196C13.437 2.65151 13.1992 2.65152 12.9734 2.71198C10.7109 3.31489 8.64677 4.50214 6.98803 6.15464C1.79069 11.352 1.79069 19.812 6.98803 25.012C8.2234 26.2542 9.69287 27.2391 11.3114 27.9097C12.93 28.5803 14.6654 28.9232 16.4174 28.9186C18.1688 28.9236 19.9039 28.5809 21.522 27.9105C23.1401 27.2402 24.6092 26.2554 25.844 25.0133C27.4978 23.3542 28.6856 21.289 29.288 19.0253C29.3479 18.7994 29.3474 18.5618 29.2866 18.3362C29.2258 18.1106 29.1069 17.9049 28.9416 17.7397C28.7764 17.5745 28.5707 17.4555 28.3451 17.3947C28.1195 17.334 27.8819 17.3335 27.656 17.3933ZM23.96 23.128C22.972 24.1214 21.7967 24.9091 20.5023 25.4453C19.2078 25.9815 17.8198 26.2557 16.4187 26.252C15.0171 26.2555 13.6287 25.981 12.3338 25.4446C11.0389 24.9081 9.8632 24.1203 8.87469 23.1266C4.71736 18.968 4.71736 12.2 8.87469 8.04131C9.67803 7.23887 10.6055 6.57119 11.6214 6.06398C11.4727 7.98272 11.74 9.91095 12.405 11.7169C13.07 13.5228 14.1171 15.1639 15.4747 16.528C16.8358 17.8898 18.4764 18.9398 20.2831 19.6053C22.0897 20.2709 24.0194 20.5361 25.9387 20.3826C25.4287 21.3968 24.7608 22.3235 23.96 23.128Z" fill="currentColor"></path>
  </symbol>
  <symbol fill="none" xmlns="http://www.w3.org/2000/svg" viewBox="0 0 16 16" id="pencil">
    <path d="M1.66663 14.3334L5.36614 12.9105C5.60277 12.8195 5.72108 12.774 5.83177 12.7146C5.93009 12.6618 6.02383 12.6009 6.11199 12.5324C6.21124 12.4554 6.30088 12.3658 6.48015 12.1865L14 4.66671C14.7364 3.93033 14.7364 2.73642 14 2.00004C13.2636 1.26366 12.0697 1.26366 11.3333 2.00004L3.81348 9.51985C3.63421 9.69912 3.54457 9.78876 3.46755 9.88801C3.39914 9.97617 3.33823 10.0699 3.28545 10.1682C3.22603 10.2789 3.18053 10.3972 3.08951 10.6339L1.66663 14.3334ZM1.66663 14.3334L3.03871 10.766C3.13689 10.5107 3.18598 10.3831 3.27019 10.3246C3.34377 10.2735 3.43483 10.2542 3.52282 10.271C3.62351 10.2902 3.72021 10.3869 3.91361 10.5803L5.41968 12.0864C5.61307 12.2798 5.70977 12.3765 5.729 12.4772C5.74581 12.5652 5.72648 12.6562 5.67539 12.7298C5.61692 12.814 5.48929 12.8631 5.23401 12.9613L1.66663 14.3334Z" stroke-width="1.3" stroke-linecap="round" stroke-linejoin="round"></path>
  </symbol>
  <symbol fill="none" xmlns="http://www.w3.org/2000/svg" viewBox="0 0 18 18" id="plus">
    <path d="M9 3.75V14.25" stroke-width="2" stroke-linecap="round" stroke-linejoin="round"></path>
    <path d="M3.75 9H14.25" stroke-width="2" stroke-linecap="round" stroke-linejoin="round"></path>
  </symbol>
  <symbol fill="none" xmlns="http://www.w3.org/2000/svg" viewBox="0 0 28 28" id="sun">
    <path d="M7.32401 14.0001C7.32401 17.6814 10.3187 20.6761 14 20.6761C17.6813 20.6761 20.676 17.6814 20.676 14.0001C20.676 10.3188 17.6813 7.32409 14 7.32409C10.3187 7.32409 7.32401 10.3188 7.32401 14.0001ZM14 9.99075C16.2107 9.99075 18.0093 11.7894 18.0093 14.0001C18.0093 16.2108 16.2107 18.0094 14 18.0094C11.7893 18.0094 9.99067 16.2108 9.99067 14.0001C9.99067 11.7894 11.7893 9.99075 14 9.99075ZM12.664 23.3334H15.3307V27.3334H12.664V23.3334ZM12.664 0.666748H15.3307V4.66675H12.664V0.666748ZM0.664001 12.6668H4.664V15.3334H0.664001V12.6668ZM23.3307 12.6668H27.3307V15.3334H23.3307V12.6668ZM3.62534 22.4841L6.45201 19.6548L8.33867 21.5401L5.512 24.3694L3.62534 22.4841ZM19.6533 6.45875L22.4827 3.62942L24.368 5.51475L21.5387 8.34409L19.6533 6.45875ZM6.45601 8.34542L3.62667 5.51608L5.51334 3.63075L8.34001 6.46008L6.45601 8.34542ZM24.368 22.4854L22.4827 24.3708L19.6533 21.5414L21.5387 19.6561L24.368 22.4854Z" fill="currentColor"></path>
  </symbol>
  <symbol fill="none" xmlns="http://www.w3.org/2000/svg" viewBox="0 0 16 16" id="trash">
    <path d="M6 2H10" stroke-width="1.3" stroke-linecap="round" stroke-linejoin="round"></path>
    <path d="M2 4H14" stroke-width="1.3" stroke-linecap="round" stroke-linejoin="round"></path>
    <path d="M3.33331 4L3.7339 10.0089C3.80828 11.1245 3.84547 11.6823 4.02777 12.1304C4.35876 12.9441 5.0297 13.5718 5.86355 13.8479C6.32283 14 6.88188 14 7.99998 14V14C9.11808 14 9.67713 14 10.1364 13.8479C10.9703 13.5718 11.6412 12.9441 11.9722 12.1304C12.1545 11.6823 12.1917 11.1245 12.2661 10.0089L12.6666 4" stroke-width="1.3" stroke-linecap="round" stroke-linejoin="round"></path>
  </symbol>
  <symbol fill="none" xmlns="http://www.w3.org/2000/svg" viewBox="0 0 24 24" id="user">
    <path d="M16 18L18 20L22 16" stroke-width="2" stroke-linecap="round" stroke-linejoin="round"></path>
    <path d="M12 15.5H7.5C6.10444 15.5 5.40665 15.5 4.83886 15.6722C3.56045 16.06 2.56004 17.0605 2.17224 18.3389C2 18.9067 2 19.6044 2 21V21" stroke-width="2" stroke-linecap="round" stroke-linejoin="round"></path>
    <path d="M10 12C12.4853 12 14.5 9.98528 14.5 7.5C14.5 5.01472 12.4853 3 10 3C7.51472 3 5.5 5.01472 5.5 7.5C5.5 9.98528 7.51472 12 10 12Z" stroke-width="2" stroke-linecap="round" stroke-linejoin="round"></path>
  </symbol>
  <symbol id="cross" viewBox="0 0 20 20" fill="none" xmlns="http://www.w3.org/2000/svg">
<path d="M15 5L5 15" stroke="currentColor" stroke-width="2" stroke-linecap="round" stroke-linejoin="round"/>
<path d="M5 5L15 15" stroke="currentColor" stroke-width="2" stroke-linecap="round" stroke-linejoin="round"/>
</symbol>
<symbol id="plus-circle" viewBox="0 0 24 24" fill="none" xmlns="http://www.w3.org/2000/svg">
<path d="M12 8V16M8 12H16M22 12C22 17.5228 17.5228 22 12 22C6.47715 22 2 17.5228 2 12C2 6.47715 6.47715 2 12 2C17.5228 2 22 6.47715 22 12Z" stroke-width="2" stroke-linecap="round" stroke-linejoin="round"/>
</symbol>
<symbol id="burger-menu" viewBox="0 0 34 34" fill="none" xmlns="http://www.w3.org/2000/svg">
<path d="M4.25 17H29.75" stroke-width="2.5" stroke-linecap="round" stroke-linejoin="round"/>
<path d="M4.25 8.5H29.75" stroke-width="2.5" stroke-linecap="round" stroke-linejoin="round"/>
<path d="M4.25 25.5H29.75" stroke-width="2.5" stroke-linecap="round" stroke-linejoin="round"/>
</symbol>

</svg>